<svg width="157" height="50" viewBox="0 0 157 50" fill="none" xmlns="http://www.w3.org/2000/svg">
<rect width="50" height="50" rx="25" fill="#8450FF"/>
<path d="M25.5219 8.98419L14.8447 14.3228L9.5062 25L20.1833 19.6614L25.5219 8.98419Z" fill="white"/>
<path d="M25.5218 41.0159L36.1989 35.6773L41.5376 25.0001L30.8604 30.3387L25.5218 41.0159Z" fill="white"/>
<path d="M9.5062 25L14.8453 35.6777L25.5219 41.0158L20.1839 30.3391L9.5062 25Z" fill="white"/>
<path d="M25.5229 8.98303L30.8609 19.6618L41.5386 24.9988L36.1995 14.3232L25.5229 8.98303Z" fill="white"/>
<path d="M64.313 34.5417V16.7057H59.049V13.9617H72.741V16.7057H67.421V34.5417H64.313ZM78.0724 34.8217C76.467 34.8217 75.1604 34.5137 74.1524 33.8977C73.1444 33.263 72.407 32.4323 71.9404 31.4057C71.4737 30.379 71.2404 29.287 71.2404 28.1297C71.2404 26.7297 71.5204 25.5257 72.0804 24.5177C72.659 23.5097 73.4524 22.735 74.4604 22.1937C75.4684 21.6337 76.607 21.3537 77.8764 21.3537C79.911 21.3537 81.395 21.923 82.3284 23.0617C83.2617 24.1817 83.7284 25.6937 83.7284 27.5977C83.7284 28.1017 83.7004 28.6243 83.6444 29.1657H74.4044C74.6097 30.323 75.0204 31.1537 75.6364 31.6577C76.271 32.143 77.111 32.3857 78.1564 32.3857C79.1644 32.3857 79.9577 32.2923 80.5364 32.1057C81.115 31.919 81.591 31.7323 81.9644 31.5457L82.8884 33.7017C82.515 33.9443 81.9364 34.1963 81.1524 34.4577C80.3684 34.7003 79.3417 34.8217 78.0724 34.8217ZM74.4044 27.0657H80.7884C80.807 25.8523 80.5364 25.0217 79.9764 24.5737C79.4164 24.1257 78.6884 23.9017 77.7924 23.9017C76.859 23.9017 76.0937 24.1537 75.4964 24.6577C74.9177 25.143 74.5537 25.9457 74.4044 27.0657ZM90.4346 34.8217C89.8372 34.8217 89.2119 34.7657 88.5586 34.6537C87.9239 34.5417 87.3359 34.4017 86.7946 34.2337C86.2719 34.047 85.8706 33.851 85.5906 33.6457L86.5986 31.2657C86.9159 31.4897 87.3919 31.7417 88.0266 32.0217C88.6799 32.3017 89.4826 32.4417 90.4346 32.4417C91.2746 32.4417 91.8439 32.3203 92.1426 32.0777C92.4412 31.8163 92.5906 31.5177 92.5906 31.1817C92.5906 30.827 92.4599 30.5563 92.1986 30.3697C91.9559 30.1643 91.6012 29.9777 91.1346 29.8097C90.6679 29.6417 90.1172 29.4363 89.4826 29.1937C88.8666 28.9323 88.2786 28.6337 87.7186 28.2977C87.1586 27.943 86.7012 27.5137 86.3466 27.0097C86.0106 26.487 85.8426 25.8523 85.8426 25.1057C85.8426 23.8923 86.3092 22.9683 87.2426 22.3337C88.1759 21.6803 89.4079 21.3537 90.9386 21.3537C91.7226 21.3537 92.4786 21.4377 93.2066 21.6057C93.9532 21.7737 94.5132 21.9883 94.8866 22.2497L93.7946 24.6577C93.5706 24.4337 93.1972 24.2283 92.6746 24.0417C92.1706 23.855 91.5639 23.7617 90.8546 23.7617C89.5292 23.7617 88.8666 24.163 88.8666 24.9657C88.8666 25.3577 89.0066 25.675 89.2866 25.9177C89.5852 26.1417 89.9679 26.3377 90.4346 26.5057C90.9199 26.655 91.4426 26.8417 92.0026 27.0657C93.1412 27.5137 94.0092 28.0363 94.6066 28.6337C95.2226 29.2123 95.5306 29.987 95.5306 30.9577C95.5306 31.835 95.2972 32.563 94.8306 33.1417C94.3639 33.7203 93.7386 34.1497 92.9546 34.4297C92.1892 34.691 91.3492 34.8217 90.4346 34.8217ZM98.93 34.5417V24.1537H96.662V21.6897H98.93V16.4537L101.982 15.7817V21.6897H104.95V24.1537H101.982V34.5417H98.93ZM107.017 34.5417V21.6897H110.153V34.5417H107.017ZM108.585 19.2817C108.006 19.2817 107.521 19.0857 107.129 18.6937C106.756 18.3017 106.569 17.8163 106.569 17.2377C106.569 16.715 106.756 16.267 107.129 15.8937C107.521 15.5203 108.006 15.3337 108.585 15.3337C109.164 15.3337 109.64 15.5203 110.013 15.8937C110.405 16.267 110.601 16.715 110.601 17.2377C110.601 17.8163 110.405 18.3017 110.013 18.6937C109.64 19.0857 109.164 19.2817 108.585 19.2817ZM113.178 34.5417V21.6897H116.146L116.174 24.0417C116.51 23.2763 117.052 22.6417 117.798 22.1377C118.564 21.615 119.478 21.3537 120.542 21.3537C121.924 21.3537 122.96 21.643 123.65 22.2217C124.341 22.7817 124.798 23.5843 125.022 24.6297C125.265 25.675 125.386 26.9163 125.386 28.3537V34.5417H122.362V28.4377C122.362 26.9443 122.213 25.8057 121.914 25.0217C121.634 24.2377 120.972 23.8457 119.926 23.8457C119.385 23.8457 118.825 24.0137 118.246 24.3497C117.668 24.6857 117.182 25.171 116.79 25.8057C116.398 26.4403 116.202 27.2243 116.202 28.1577V34.5417H113.178ZM134.722 41.2617C133.994 41.2617 133.294 41.187 132.622 41.0377C131.968 40.8883 131.399 40.7203 130.914 40.5337C130.428 40.3657 130.102 40.235 129.934 40.1417L130.606 37.3417C131.054 37.6403 131.604 37.911 132.258 38.1537C132.911 38.415 133.704 38.5457 134.638 38.5457C135.067 38.5457 135.506 38.499 135.954 38.4057C136.42 38.331 136.859 38.1537 137.27 37.8737C137.68 37.6123 138.007 37.211 138.25 36.6697C138.511 36.147 138.642 35.447 138.642 34.5697V32.2737C138.268 32.9643 137.643 33.5617 136.766 34.0657C135.907 34.5697 134.927 34.8217 133.826 34.8217C132.706 34.8217 131.679 34.551 130.746 34.0097C129.831 33.4497 129.094 32.6657 128.534 31.6577C127.992 30.631 127.722 29.427 127.722 28.0457C127.722 26.7203 127.974 25.563 128.478 24.5737C129 23.5657 129.728 22.7817 130.662 22.2217C131.614 21.643 132.734 21.3537 134.022 21.3537C134.806 21.3537 135.524 21.4937 136.178 21.7737C136.831 22.035 137.372 22.3617 137.802 22.7537C138.25 23.127 138.548 23.491 138.698 23.8457L138.754 21.6897H141.61V34.4577C141.61 36.567 141.059 38.2283 139.958 39.4417C138.875 40.655 137.13 41.2617 134.722 41.2617ZM134.666 32.2737C135.356 32.2737 135.982 32.115 136.542 31.7977C137.12 31.4617 137.578 30.995 137.914 30.3977C138.268 29.8003 138.446 29.091 138.446 28.2697V28.0737C138.446 27.2337 138.268 26.5057 137.914 25.8897C137.578 25.255 137.12 24.7697 136.542 24.4337C135.982 24.079 135.356 23.9017 134.666 23.9017C133.415 23.9017 132.472 24.303 131.838 25.1057C131.222 25.9083 130.914 26.8977 130.914 28.0737C130.914 29.2683 131.222 30.267 131.838 31.0697C132.472 31.8723 133.415 32.2737 134.666 32.2737Z" fill="white"/>
</svg>
